<?xml version="1.0" encoding="UTF-8" standalone="no"?>
<!-- Created with Inkscape (http://www.inkscape.org/) -->

<svg
   width="210mm"
   height="297mm"
   viewBox="0 0 210 297"
   version="1.1"
   id="svg5"
   inkscape:version="1.1.1 (3bf5ae0d25, 2021-09-20)"
   sodipodi:docname="seta.svg"
   xmlns:inkscape="http://www.inkscape.org/namespaces/inkscape"
   xmlns:sodipodi="http://sodipodi.sourceforge.net/DTD/sodipodi-0.dtd"
   xmlns="http://www.w3.org/2000/svg"
   xmlns:svg="http://www.w3.org/2000/svg">
  <sodipodi:namedview
     id="namedview7"
     pagecolor="#ffffff"
     bordercolor="#666666"
     borderopacity="1.0"
     inkscape:pageshadow="2"
     inkscape:pageopacity="0.0"
     inkscape:pagecheckerboard="0"
     inkscape:document-units="mm"
     showgrid="false"
     inkscape:zoom="0.5078125"
     inkscape:cx="174.27692"
     inkscape:cy="479.50769"
     inkscape:window-width="1366"
     inkscape:window-height="705"
     inkscape:window-x="-8"
     inkscape:window-y="-8"
     inkscape:window-maximized="1"
     inkscape:current-layer="layer1" />
  <defs
     id="defs2" />
  <g
     inkscape:label="Camada 1"
     inkscape:groupmode="layer"
     id="layer1">
    <path
       style="fill:#000000;fill-opacity:1;fill-rule:nonzero;stroke:none;stroke-width:0.264583"
       id="path44"
       d="m 91.525203,48.712913 c 0.265461,10.6865 0.276759,21.378135 0.324995,32.06736 -0.169193,18.221885 1.237692,36.405717 2.42089,54.575637 0.901168,13.38714 1.342988,26.79719 1.54387,40.21113 0.106749,8.94832 -0.06444,17.90249 -0.414565,26.84438 -0.356878,5.73542 -0.387368,11.48337 -0.825529,17.2133 -0.215863,3.11549 -0.488087,6.22279 -0.839592,9.32574 0,0 3.399097,-1.68733 3.399097,-1.68733 v 0 c 0.300157,-3.09878 0.548804,-6.20077 0.773663,-9.30592 0.406826,-5.7171 0.453358,-11.45139 0.720024,-17.17607 0.279421,-8.92085 0.369268,-17.85188 0.238707,-26.77602 C 98.583511,160.63689 97.986462,147.27931 96.998019,133.94325 95.729715,115.77002 94.33911,97.57272 94.67698,79.339955 94.72549,68.54032 94.73864,57.738396 95.001976,46.941409 c 0,0 -3.476773,1.771504 -3.476773,1.771504 z" />
    <path
       style="fill:#000000;fill-opacity:1;fill-rule:nonzero;stroke:none;stroke-width:0.264583"
       id="path54"
       d="m 89.364194,47.603727 c 1.16105,-4.164166 2.358957,-8.333393 3.868309,-12.387096 0.255556,-0.328991 1.11936,-1.208677 0.766668,-0.986972 -0.878184,0.552037 -1.950522,1.059124 -2.382015,2.002401 -0.190299,0.416009 0.767416,0.513892 1.076822,0.850857 1.360652,1.481842 2.274322,3.449439 3.189431,5.213565 0.663339,1.519277 0.895945,2.93353 0.08117,4.44329 -0.2071,0.383755 -0.520285,0.699953 -0.780428,1.049931 0,0 3.538966,-1.542484 3.538966,-1.542484 v 0 c 0.242699,-0.381752 0.542935,-0.732518 0.728101,-1.145252 0.726322,-1.618977 0.425733,-3.11776 -0.286268,-4.680979 -0.945658,-1.811544 -1.881074,-3.795538 -3.20761,-5.371944 -0.339998,-0.40404 -0.640461,-1.143325 -1.164024,-1.074552 -3.808145,0.500216 -3.750448,0.858078 -5.006456,2.850719 -1.430174,4.138313 -2.645926,8.352424 -3.9618,12.526703 0,0 3.53913,-1.748187 3.53913,-1.748187 z" />
    <path
       style="fill:#000000;fill-opacity:1;fill-rule:nonzero;stroke:none;stroke-width:0.264583"
       id="path74"
       d="m 87.596532,113.63926 c 0.200228,-0.15229 0.397544,-0.30849 0.600686,-0.45687 0.267679,-0.19553 0.536183,-0.39021 0.811575,-0.57472 0.291161,-0.19507 1.178608,-0.75887 0.88755,-0.56365 -0.709044,0.47558 -1.859113,0.59916 -2.141659,1.40482 -0.209008,0.59597 1.211246,-0.36086 1.82612,-0.50508 0.784174,-0.18392 1.578977,-0.31916 2.368465,-0.47875 5.4669,-0.99918 11.022091,-1.22404 16.563521,-1.38141 7.6982,-0.17161 15.3937,0.32229 23.08208,0.65957 4.83999,0.22908 9.68499,0.304 14.52964,0.3397 3.85972,0.009 7.71944,0.022 11.57917,0.0252 3.26585,-0.0331 6.53338,0.0591 9.79755,-0.0599 3.04216,-0.26629 6.07579,-0.61071 9.12344,-0.81231 1.60097,-0.21843 4.16105,0.12902 5.61256,-0.6188 1.48532,-0.76524 2.90478,-1.65206 4.35717,-2.47809 1.07249,-0.78428 1.87629,-1.79108 2.64473,-2.85531 0,0 -3.55346,1.53235 -3.55346,1.53235 v 0 c -0.79124,1.02562 -1.6069,2.00043 -2.71035,2.71493 0.77997,-0.43188 1.61055,-0.78289 2.33992,-1.29563 0.27957,-0.19654 -0.63828,0.2496 -0.96983,0.33245 -1.50508,0.37612 -3.0778,0.24405 -4.60835,0.37514 -3.05581,0.20348 -6.09714,0.55409 -9.14569,0.84184 -3.26157,0.13354 -6.52718,0.0472 -9.79084,0.073 -3.8735,0.009 -7.74702,0.0304 -11.62052,0.008 -4.87379,-0.0245 -9.74765,-0.0823 -14.61866,-0.26006 -7.70141,-0.27129 -15.40329,-0.75697 -23.11119,-0.66638 -5.52524,0.0914 -11.05485,0.30096 -16.510385,1.26474 -0.276225,0.0506 -3.658539,0.63079 -4.150855,0.85046 -2.459757,1.09755 -4.755785,2.41321 -6.865808,4.05886 0,0 3.67342,-1.47417 3.67342,-1.47417 z" />
    <path
       style="fill:#000000;fill-opacity:1;fill-rule:nonzero;stroke:none;stroke-width:0.264583"
       id="path76"
       d="m 110.25865,209.71341 c -1.93523,-1.7699 -3.58815,-1.84789 -6.15913,-2.07102 -5.530585,-0.23909 -11.067814,-0.31357 -16.603072,-0.35719 -5.198327,-0.003 -10.396495,0.035 -15.594864,0.0277 -4.512694,-0.0215 -9.025425,-0.0129 -13.538142,-0.006 -4.323707,0.01 -8.647406,-0.0133 -12.971097,-0.0115 -4.637725,0.0103 -9.275239,0.0265 -13.912967,0.005 -2.972345,0.11651 -5.914321,-0.31045 -8.850099,-0.70263 -1.72027,-0.14808 -3.341679,-0.77145 -4.925564,-1.42064 -1.722843,-0.95545 -3.14991,-2.29659 -4.491219,-3.71754 -0.679296,-0.68918 -1.030416,-1.54131 -1.305985,-2.44766 0,0 -3.4459045,1.89032 -3.4459045,1.89032 v 0 c 0.3102079,0.95411 0.6921728,1.86394 1.4126263,2.5914 1.3824352,1.45213 2.8584062,2.80478 4.5821152,3.84994 1.593245,0.69902 3.258958,1.34285 5.003798,1.49642 2.976735,0.36331 5.954651,0.82999 8.964869,0.68024 4.63283,-0.021 9.265439,-0.005 13.898264,0.005 4.334483,0.002 8.668972,-0.0208 13.003474,-0.012 4.524232,0.005 9.048496,0.0119 13.572667,-0.0184 5.180907,-0.0165 10.3617,0.003 15.542604,0.008 5.527746,-7.9e-4 11.061168,-0.0136 16.580516,0.33263 2.31174,0.22404 4.17787,0.28262 5.88529,1.98284 0,0 3.35182,-2.10536 3.35182,-2.10536 z" />
  </g>
</svg>
